<svg width="225" height="225" viewBox="0 0 225 225" fill="none" xmlns="http://www.w3.org/2000/svg">
<g filter="url(#filter0_b_28_1049)">
<circle cx="112.5" cy="112.5" r="112.5" fill="#0F0F0F" fill-opacity="0.35"/>
<circle cx="112.5" cy="112.5" r="112" stroke="white" stroke-opacity="0.4"/>
</g>
<path d="M61.2085 125.409C60.1585 125.409 59.2121 125.226 58.3693 124.86C57.5265 124.494 56.8081 123.973 56.214 123.296C55.6269 122.619 55.1779 121.804 54.867 120.85C54.5561 119.89 54.4007 118.819 54.4007 117.638C54.4007 116.077 54.6701 114.716 55.2089 113.556C55.7547 112.388 56.5353 111.483 57.5507 110.841C58.5662 110.198 59.7854 109.877 61.2085 109.877C62.7973 109.877 64.089 110.25 65.0838 110.996C66.0854 111.735 66.7831 112.73 67.1769 113.98L65.6433 114.353C65.3186 113.442 64.7833 112.713 64.0372 112.167C63.2981 111.621 62.3759 111.348 61.2706 111.348C60.1032 111.342 59.1326 111.604 58.3589 112.136C57.5853 112.661 57.0015 113.4 56.6078 114.353C56.221 115.3 56.0241 116.395 56.0172 117.638C56.0103 118.882 56.2002 119.976 56.5871 120.923C56.9808 121.862 57.568 122.601 58.3486 123.14C59.1292 123.672 60.1032 123.942 61.2706 123.948C62.3413 123.948 63.2256 123.741 63.9233 123.327C64.621 122.912 65.1494 122.318 65.5086 121.545C65.8747 120.771 66.082 119.856 66.1303 118.799H62.6902V117.493H67.7261C67.7468 117.652 67.7571 117.821 67.7571 118.001C67.764 118.173 67.7675 118.298 67.7675 118.374C67.7675 119.721 67.5257 120.926 67.0422 121.99C66.5586 123.047 65.8298 123.883 64.8558 124.498C63.8887 125.106 62.6729 125.409 61.2085 125.409ZM75.8824 125.409C74.3972 125.409 73.1435 125.081 72.1211 124.425C71.0987 123.762 70.325 122.847 69.8 121.679C69.275 120.512 69.0125 119.165 69.0125 117.638C69.0125 116.111 69.275 114.764 69.8 113.597C70.325 112.43 71.0987 111.518 72.1211 110.861C73.1435 110.198 74.3972 109.867 75.8824 109.867C77.3745 109.867 78.6283 110.198 79.6438 110.861C80.6662 111.518 81.4398 112.43 81.9648 113.597C82.4967 114.764 82.7627 116.111 82.7627 117.638C82.7627 119.165 82.4967 120.512 81.9648 121.679C81.4398 122.847 80.6662 123.762 79.6438 124.425C78.6283 125.081 77.3745 125.409 75.8824 125.409ZM75.8824 123.948C77.0499 123.948 78.0239 123.683 78.8045 123.151C79.5851 122.619 80.1688 121.88 80.5556 120.933C80.9494 119.98 81.1463 118.882 81.1463 117.638C81.1463 116.395 80.9494 115.3 80.5556 114.353C80.1688 113.407 79.5851 112.668 78.8045 112.136C78.0239 111.604 77.0499 111.335 75.8824 111.328C74.715 111.328 73.7444 111.594 72.9708 112.126C72.1971 112.658 71.6134 113.4 71.2196 114.353C70.8328 115.3 70.6359 116.395 70.629 117.638C70.6221 118.882 70.812 119.976 71.1989 120.923C71.5926 121.862 72.1798 122.601 72.9604 123.14C73.741 123.672 74.715 123.942 75.8824 123.948ZM88.9866 125.099V110.178H94.7478C95.5836 110.178 96.3124 110.35 96.9341 110.696C97.5559 111.041 98.0394 111.507 98.3848 112.095C98.7302 112.675 98.9029 113.317 98.9029 114.022C98.9029 114.823 98.6887 115.538 98.2605 116.167C97.8322 116.788 97.2588 117.22 96.5404 117.462L96.5197 116.954C97.4868 117.231 98.2466 117.714 98.7993 118.405C99.3519 119.096 99.6282 119.932 99.6282 120.912C99.6282 121.776 99.4452 122.522 99.079 123.151C98.7129 123.772 98.1983 124.252 97.5351 124.591C96.872 124.929 96.1017 125.099 95.2244 125.099H88.9866ZM90.5202 123.638H94.8514C95.4593 123.638 96.005 123.531 96.4886 123.316C96.9721 123.095 97.3521 122.784 97.6284 122.384C97.9116 121.983 98.0532 121.5 98.0532 120.933C98.0532 120.381 97.9254 119.883 97.6698 119.441C97.4142 118.999 97.0654 118.647 96.6233 118.384C96.1881 118.115 95.6907 117.98 95.1312 117.98H90.5202V123.638ZM90.5202 116.54H94.7374C95.2141 116.54 95.6493 116.433 96.043 116.219C96.4368 115.997 96.7476 115.697 96.9756 115.317C97.2105 114.937 97.3279 114.498 97.3279 114.001C97.3279 113.296 97.0827 112.723 96.5922 112.281C96.1086 111.839 95.4904 111.618 94.7374 111.618H90.5202V116.54ZM100.66 125.099L105.799 110.178H107.82L112.959 125.099H111.374L106.494 111.027H107.095L102.245 125.099H100.66ZM102.95 121.482V120.052H110.659V121.482H102.95ZM120.467 125.409C118.981 125.409 117.728 125.081 116.705 124.425C115.683 123.762 114.909 122.847 114.384 121.679C113.859 120.512 113.597 119.165 113.597 117.638C113.597 116.111 113.859 114.764 114.384 113.597C114.909 112.43 115.683 111.518 116.705 110.861C117.728 110.198 118.981 109.867 120.467 109.867C122.201 109.867 123.617 110.312 124.715 111.203C125.813 112.088 126.566 113.276 126.974 114.768L125.42 115.172C125.102 113.991 124.532 113.055 123.71 112.364C122.888 111.673 121.807 111.328 120.467 111.328C119.299 111.328 118.329 111.594 117.555 112.126C116.781 112.658 116.198 113.4 115.804 114.353C115.417 115.3 115.217 116.395 115.203 117.638C115.196 118.882 115.386 119.976 115.773 120.923C116.167 121.869 116.754 122.612 117.534 123.151C118.322 123.683 119.299 123.948 120.467 123.948C121.807 123.948 122.888 123.603 123.71 122.912C124.532 122.215 125.102 121.279 125.42 120.104L126.974 120.508C126.566 122 125.813 123.192 124.715 124.083C123.617 124.967 122.201 125.409 120.467 125.409ZM129.26 125.099V110.178H130.783V117.224L137.591 110.178H139.539L132.586 117.379L140.109 125.099H138.12L130.783 117.638V125.099H129.26ZM149.277 125.099V111.639H144.065V110.178H156.013V111.639H150.801V125.099H149.277ZM163.715 125.409C162.23 125.409 160.976 125.081 159.954 124.425C158.932 123.762 158.158 122.847 157.633 121.679C157.108 120.512 156.845 119.165 156.845 117.638C156.845 116.111 157.108 114.764 157.633 113.597C158.158 112.43 158.932 111.518 159.954 110.861C160.976 110.198 162.23 109.867 163.715 109.867C165.207 109.867 166.461 110.198 167.477 110.861C168.499 111.518 169.273 112.43 169.798 113.597C170.33 114.764 170.596 116.111 170.596 117.638C170.596 119.165 170.33 120.512 169.798 121.679C169.273 122.847 168.499 123.762 167.477 124.425C166.461 125.081 165.207 125.409 163.715 125.409ZM163.715 123.948C164.883 123.948 165.857 123.683 166.637 123.151C167.418 122.619 168.002 121.88 168.388 120.933C168.782 119.98 168.979 118.882 168.979 117.638C168.979 116.395 168.782 115.3 168.388 114.353C168.002 113.407 167.418 112.668 166.637 112.136C165.857 111.604 164.883 111.335 163.715 111.328C162.548 111.328 161.577 111.594 160.804 112.126C160.03 112.658 159.446 113.4 159.052 114.353C158.666 115.3 158.469 116.395 158.462 117.638C158.455 118.882 158.645 119.976 159.032 120.923C159.425 121.862 160.013 122.601 160.793 123.14C161.574 123.672 162.548 123.942 163.715 123.948ZM44.4751 154.099V140.639H39.2631V139.178H51.2103V140.639H45.9983V154.099H44.4751ZM52.8719 154.099V139.178H54.3951V145.902H62.6432V139.178H64.156V154.099H62.6432V147.363H54.3951V154.099H52.8719ZM67.0588 154.099V139.178H76.3844V140.639H68.582V145.799H75.141V147.26H68.582V152.638H76.3844V154.099H67.0588ZM83.0265 154.099V139.178H84.4254L90.2902 151.726L96.1239 139.178H97.5435V154.088H96.0928V142.576L90.7772 154.099H89.7928L84.4875 142.576V154.099H83.0265ZM99.4152 154.099L104.555 139.178H106.575L111.715 154.099H110.129L105.249 140.027H105.85L101.001 154.099H99.4152ZM101.705 150.482V149.052H109.414V150.482H101.705ZM113.793 154.099V139.178H115.316V154.099H113.793ZM118.423 154.099V139.178H119.956L128.173 151.405V139.178H129.707V154.099H128.173L119.956 141.861V154.099H118.423ZM136.758 154.099V139.178H142.52C142.665 139.178 142.827 139.184 143.007 139.198C143.193 139.205 143.38 139.226 143.566 139.26C144.347 139.378 145.006 139.651 145.545 140.079C146.091 140.5 146.502 141.032 146.778 141.675C147.061 142.317 147.203 143.029 147.203 143.809C147.203 144.583 147.061 145.291 146.778 145.934C146.495 146.576 146.081 147.111 145.535 147.54C144.996 147.961 144.34 148.23 143.566 148.348C143.38 148.375 143.193 148.396 143.007 148.41C142.827 148.424 142.665 148.431 142.52 148.431H138.282V154.099H136.758ZM138.282 146.98H142.478C142.602 146.98 142.747 146.973 142.913 146.959C143.079 146.946 143.241 146.921 143.4 146.887C143.911 146.776 144.329 146.566 144.654 146.255C144.986 145.944 145.231 145.574 145.39 145.146C145.556 144.718 145.638 144.272 145.638 143.809C145.638 143.346 145.556 142.901 145.39 142.473C145.231 142.037 144.986 141.664 144.654 141.354C144.329 141.043 143.911 140.832 143.4 140.721C143.241 140.687 143.079 140.666 142.913 140.659C142.747 140.646 142.602 140.639 142.478 140.639H138.282V146.98ZM147.197 154.099L152.337 139.178H154.357L159.497 154.099H157.911L153.031 140.027H153.632L148.782 154.099H147.197ZM149.487 150.482V149.052H157.196V150.482H149.487ZM166.942 154.409C165.892 154.409 164.945 154.226 164.103 153.86C163.26 153.494 162.541 152.973 161.947 152.296C161.36 151.619 160.911 150.804 160.6 149.85C160.289 148.89 160.134 147.819 160.134 146.638C160.134 145.077 160.403 143.716 160.942 142.556C161.488 141.388 162.269 140.483 163.284 139.841C164.299 139.198 165.519 138.877 166.942 138.877C168.531 138.877 169.822 139.25 170.817 139.996C171.819 140.735 172.516 141.73 172.91 142.98L171.377 143.353C171.052 142.442 170.517 141.713 169.771 141.167C169.031 140.621 168.109 140.348 167.004 140.348C165.836 140.342 164.866 140.604 164.092 141.136C163.319 141.661 162.735 142.4 162.341 143.353C161.954 144.3 161.757 145.395 161.75 146.638C161.744 147.882 161.934 148.976 162.32 149.923C162.714 150.862 163.301 151.601 164.082 152.14C164.862 152.672 165.836 152.942 167.004 152.948C168.075 152.948 168.959 152.741 169.657 152.327C170.354 151.912 170.883 151.318 171.242 150.545C171.608 149.771 171.815 148.856 171.864 147.799H168.423V146.493H173.459C173.48 146.652 173.49 146.821 173.49 147.001C173.497 147.173 173.501 147.298 173.501 147.374C173.501 148.721 173.259 149.926 172.775 150.99C172.292 152.047 171.563 152.883 170.589 153.498C169.622 154.106 168.406 154.409 166.942 154.409ZM175.575 154.099V139.178H184.9V140.639H177.098V145.799H183.657V147.26H177.098V152.638H184.9V154.099H175.575Z" fill="white"/>
<path d="M53.779 126.394H171.217V126.912H53.779V126.394ZM39.0559 155.394H185.937V155.912H39.0559V155.394Z" fill="white"/>
<path d="M122.403 82.917L98.6574 59.1711" stroke="white" stroke-width="1.48026" stroke-linecap="round" stroke-linejoin="round"/>
<path d="M122.403 59.1711H98.6574V82.917" stroke="white" stroke-width="1.48026" stroke-linecap="round" stroke-linejoin="round"/>
<defs>
<filter id="filter0_b_28_1049" x="-18" y="-18" width="261" height="261" filterUnits="userSpaceOnUse" color-interpolation-filters="sRGB">
<feFlood flood-opacity="0" result="BackgroundImageFix"/>
<feGaussianBlur in="BackgroundImageFix" stdDeviation="9"/>
<feComposite in2="SourceAlpha" operator="in" result="effect1_backgroundBlur_28_1049"/>
<feBlend mode="normal" in="SourceGraphic" in2="effect1_backgroundBlur_28_1049" result="shape"/>
</filter>
</defs>
</svg>
