<svg width="304" height="304" viewBox="0 0 304 304" fill="none" xmlns="http://www.w3.org/2000/svg">
<circle cx="152" cy="152" r="152" fill="#0F0F0F"/>
<path d="M89.8 162V133.2H100.92C102.533 133.2 103.94 133.533 105.14 134.2C106.34 134.867 107.273 135.767 107.94 136.9C108.607 138.02 108.94 139.26 108.94 140.62C108.94 142.167 108.527 143.547 107.7 144.76C106.873 145.96 105.767 146.793 104.38 147.26L104.34 146.28C106.207 146.813 107.673 147.747 108.74 149.08C109.807 150.413 110.34 152.027 110.34 153.92C110.34 155.587 109.987 157.027 109.28 158.24C108.573 159.44 107.58 160.367 106.3 161.02C105.02 161.673 103.533 162 101.84 162H89.8ZM92.76 159.18H101.12C102.293 159.18 103.347 158.973 104.28 158.56C105.213 158.133 105.947 157.533 106.48 156.76C107.027 155.987 107.3 155.053 107.3 153.96C107.3 152.893 107.053 151.933 106.56 151.08C106.067 150.227 105.393 149.547 104.54 149.04C103.7 148.52 102.74 148.26 101.66 148.26H92.76V159.18ZM92.76 145.48H100.9C101.82 145.48 102.66 145.273 103.42 144.86C104.18 144.433 104.78 143.853 105.22 143.12C105.673 142.387 105.9 141.54 105.9 140.58C105.9 139.22 105.427 138.113 104.48 137.26C103.547 136.407 102.353 135.98 100.9 135.98H92.76V145.48ZM125.991 162.6C123.125 162.6 120.705 161.967 118.731 160.7C116.758 159.42 115.265 157.653 114.251 155.4C113.238 153.147 112.731 150.547 112.731 147.6C112.731 144.653 113.238 142.053 114.251 139.8C115.265 137.547 116.758 135.787 118.731 134.52C120.705 133.24 123.125 132.6 125.991 132.6C128.871 132.6 131.291 133.24 133.251 134.52C135.225 135.787 136.718 137.547 137.731 139.8C138.758 142.053 139.271 144.653 139.271 147.6C139.271 150.547 138.758 153.147 137.731 155.4C136.718 157.653 135.225 159.42 133.251 160.7C131.291 161.967 128.871 162.6 125.991 162.6ZM125.991 159.78C128.245 159.78 130.125 159.267 131.631 158.24C133.138 157.213 134.265 155.787 135.011 153.96C135.771 152.12 136.151 150 136.151 147.6C136.151 145.2 135.771 143.087 135.011 141.26C134.265 139.433 133.138 138.007 131.631 136.98C130.125 135.953 128.245 135.433 125.991 135.42C123.738 135.42 121.865 135.933 120.371 136.96C118.878 137.987 117.751 139.42 116.991 141.26C116.245 143.087 115.865 145.2 115.851 147.6C115.838 150 116.205 152.113 116.951 153.94C117.711 155.753 118.845 157.18 120.351 158.22C121.858 159.247 123.738 159.767 125.991 159.78ZM154.937 162.6C152.07 162.6 149.65 161.967 147.677 160.7C145.703 159.42 144.21 157.653 143.197 155.4C142.183 153.147 141.677 150.547 141.677 147.6C141.677 144.653 142.183 142.053 143.197 139.8C144.21 137.547 145.703 135.787 147.677 134.52C149.65 133.24 152.07 132.6 154.937 132.6C157.817 132.6 160.237 133.24 162.197 134.52C164.17 135.787 165.663 137.547 166.677 139.8C167.703 142.053 168.217 144.653 168.217 147.6C168.217 150.547 167.703 153.147 166.677 155.4C165.663 157.653 164.17 159.42 162.197 160.7C160.237 161.967 157.817 162.6 154.937 162.6ZM154.937 159.78C157.19 159.78 159.07 159.267 160.577 158.24C162.083 157.213 163.21 155.787 163.957 153.96C164.717 152.12 165.097 150 165.097 147.6C165.097 145.2 164.717 143.087 163.957 141.26C163.21 139.433 162.083 138.007 160.577 136.98C159.07 135.953 157.19 135.433 154.937 135.42C152.683 135.42 150.81 135.933 149.317 136.96C147.823 137.987 146.697 139.42 145.937 141.26C145.19 143.087 144.81 145.2 144.797 147.6C144.783 150 145.15 152.113 145.897 153.94C146.657 155.753 147.79 157.18 149.297 158.22C150.803 159.247 152.683 159.767 154.937 159.78ZM172.222 162V133.2H175.162V146.8L188.302 133.2H192.062L178.642 147.1L193.162 162H189.322L175.162 147.6V162H172.222ZM87.8 202L97.72 173.2H101.62L111.54 202H108.48L99.06 174.84H100.22L90.86 202H87.8ZM92.22 195.02V192.26H107.1V195.02H92.22ZM123.159 202V173.2H131.899C132.206 173.2 132.726 173.207 133.459 173.22C134.206 173.233 134.919 173.287 135.599 173.38C137.786 173.687 139.613 174.5 141.079 175.82C142.546 177.14 143.646 178.82 144.379 180.86C145.113 182.9 145.479 185.147 145.479 187.6C145.479 190.053 145.113 192.3 144.379 194.34C143.646 196.38 142.546 198.06 141.079 199.38C139.613 200.7 137.786 201.513 135.599 201.82C134.933 201.9 134.219 201.953 133.459 201.98C132.699 201.993 132.179 202 131.899 202H123.159ZM126.199 199.18H131.899C132.446 199.18 133.033 199.167 133.659 199.14C134.299 199.1 134.846 199.033 135.299 198.94C136.979 198.647 138.333 197.967 139.359 196.9C140.399 195.833 141.159 194.5 141.639 192.9C142.119 191.287 142.359 189.52 142.359 187.6C142.359 185.667 142.119 183.893 141.639 182.28C141.159 180.667 140.399 179.333 139.359 178.28C138.319 177.227 136.966 176.553 135.299 176.26C134.846 176.167 134.293 176.107 133.639 176.08C132.999 176.04 132.419 176.02 131.899 176.02H126.199V199.18ZM147.253 202L157.173 173.2H161.073L170.993 202H167.933L158.513 174.84H159.673L150.313 202H147.253ZM151.673 195.02V192.26H166.553V195.02H151.673ZM179.882 202V176.02H169.822V173.2H192.882V176.02H182.822V202H179.882ZM196.089 202V173.2H214.089V176.02H199.029V185.98H211.689V188.8H199.029V199.18H214.089V202H196.089Z" fill="white"/>
<path d="M87 164.5H193.162V165.5H87V164.5ZM87 204.5H216.089V205.5H87V204.5Z" fill="white"/>
<path d="M136.458 104.542L168.542 72.4583" stroke="white" stroke-width="2" stroke-linecap="round" stroke-linejoin="round"/>
<path d="M136.458 72.4583H168.542V104.542" stroke="white" stroke-width="2" stroke-linecap="round" stroke-linejoin="round"/>
</svg>
