<svg width="85" height="86" viewBox="0 0 85 86" fill="none" xmlns="http://www.w3.org/2000/svg">
<path d="M84.5 43C84.5 66.4776 65.6905 85.5 42.5 85.5C19.3095 85.5 0.5 66.4776 0.5 43C0.5 19.5224 19.3095 0.5 42.5 0.5C65.6905 0.5 84.5 19.5224 84.5 43Z" stroke="black"/>
<path d="M51.875 22.6666H33.125C27.9473 22.6666 23.75 26.7707 23.75 31.8333V50.1666C23.75 55.2292 27.9473 59.3333 33.125 59.3333H51.875C57.0527 59.3333 61.25 55.2292 61.25 50.1666V31.8333C61.25 26.7707 57.0527 22.6666 51.875 22.6666Z" stroke="black" stroke-linecap="round" stroke-linejoin="round"/>
<path d="M50 39.8449C50.2314 41.3707 49.9649 42.929 49.2383 44.2981C48.5117 45.6673 47.3621 46.7775 45.953 47.471C44.5439 48.1645 42.9471 48.4059 41.3896 48.1608C39.8321 47.9158 38.3933 47.1968 37.2778 46.1061C36.1623 45.0154 35.427 43.6085 35.1764 42.0857C34.9258 40.5628 35.1726 39.0014 35.8819 37.6236C36.5911 36.2458 37.7266 35.1218 39.1268 34.4114C40.5271 33.701 42.1208 33.4404 43.6813 33.6666C45.273 33.8974 46.7466 34.6226 47.8844 35.7352C49.0223 36.8477 49.764 38.2886 50 39.8449Z" stroke="black" stroke-linecap="round" stroke-linejoin="round"/>
<path d="M52.8125 30.9166H52.8305" stroke="black" stroke-linecap="round" stroke-linejoin="round"/>
</svg>
