<svg width="45" height="46" viewBox="0 0 45 46" fill="none" xmlns="http://www.w3.org/2000/svg">
<path d="M44.5 22.7647C44.5 35.0667 34.6448 45.0294 22.5 45.0294C10.3552 45.0294 0.5 35.0667 0.5 22.7647C0.5 10.4627 10.3552 0.5 22.5 0.5C34.6448 0.5 44.5 10.4627 44.5 22.7647Z" stroke="black"/>
<path d="M27.4632 12H17.5368C14.7956 12 12.5735 14.1727 12.5735 16.8529V26.5588C12.5735 29.239 14.7956 31.4118 17.5368 31.4118H27.4632C30.2043 31.4118 32.4265 29.239 32.4265 26.5588V16.8529C32.4265 14.1727 30.2043 12 27.4632 12Z" stroke="black" stroke-linecap="round" stroke-linejoin="round"/>
<path d="M26.4706 21.0944C26.5931 21.9021 26.452 22.7271 26.0673 23.4519C25.6827 24.1768 25.0741 24.7646 24.3281 25.1317C23.5821 25.4988 22.7367 25.6266 21.9121 25.4969C21.0876 25.3672 20.3259 24.9865 19.7353 24.4091C19.1448 23.8317 18.7555 23.0869 18.6228 22.2806C18.4901 21.4744 18.6208 20.6478 18.9963 19.9184C19.3718 19.189 19.9729 18.5939 20.7142 18.2178C21.4555 17.8417 22.2992 17.7037 23.1254 17.8235C23.9681 17.9457 24.7482 18.3296 25.3506 18.9186C25.953 19.5076 26.3456 20.2704 26.4706 21.0944Z" stroke="black" stroke-linecap="round" stroke-linejoin="round"/>
<path d="M27.9596 16.3677H27.9691" stroke="black" stroke-linecap="round" stroke-linejoin="round"/>
</svg>
