<svg width="85" height="86" viewBox="0 0 85 86" fill="none" xmlns="http://www.w3.org/2000/svg">
<ellipse cx="42.5" cy="43" rx="42.5" ry="43" fill="black"/>
<path d="M51.875 22.6667H33.125C27.9473 22.6667 23.75 26.7708 23.75 31.8334V50.1667C23.75 55.2294 27.9473 59.3334 33.125 59.3334H51.875C57.0527 59.3334 61.25 55.2294 61.25 50.1667V31.8334C61.25 26.7708 57.0527 22.6667 51.875 22.6667Z" stroke="white" stroke-linecap="round" stroke-linejoin="round"/>
<path d="M49.9999 39.8451C50.2313 41.3708 49.9648 42.9291 49.2382 44.2983C48.5117 45.6674 47.3621 46.7777 45.953 47.4711C44.5439 48.1646 42.947 48.406 41.3895 48.1609C39.832 47.9159 38.3932 47.1969 37.2778 46.1062C36.1623 45.0155 35.4269 43.6087 35.1763 42.0858C34.9257 40.5629 35.1726 39.0015 35.8818 37.6238C36.591 36.246 37.7265 35.1219 39.1268 34.4115C40.527 33.7011 42.1207 33.4405 43.6812 33.6667C45.2729 33.8975 46.7465 34.6227 47.8844 35.7353C49.0222 36.8478 49.7639 38.2887 49.9999 39.8451Z" stroke="white" stroke-linecap="round" stroke-linejoin="round"/>
<path d="M52.8125 30.9167H52.8305" stroke="white" stroke-linecap="round" stroke-linejoin="round"/>
</svg>
