<svg width="85" height="86" viewBox="0 0 85 86" fill="none" xmlns="http://www.w3.org/2000/svg">
<ellipse cx="42.5" cy="43" rx="42.5" ry="43" fill="black"/>
<path d="M59.6666 51.2001V56.2001C59.6685 56.6642 59.5734 57.1237 59.3875 57.549C59.2015 57.9743 58.9288 58.3561 58.5868 58.6699C58.2447 58.9836 57.8409 59.2226 57.4012 59.3713C56.9615 59.52 56.4956 59.5752 56.0333 59.5334C50.9047 58.9761 45.9783 57.2237 41.65 54.4167C37.623 51.8579 34.2089 48.4437 31.65 44.4167C28.8333 40.0688 27.0804 35.1184 26.5333 29.9667C26.4917 29.5059 26.5464 29.0413 26.6941 28.6028C26.8418 28.1642 27.0793 27.7612 27.3912 27.4194C27.7032 27.0777 28.083 26.8046 28.5063 26.6176C28.9296 26.4306 29.3872 26.3338 29.85 26.3334H34.85C35.6588 26.3255 36.443 26.6119 37.0562 27.1393C37.6695 27.6667 38.0701 28.3992 38.1833 29.2001C38.3943 30.8002 38.7857 32.3713 39.35 33.8834C39.5742 34.48 39.6227 35.1283 39.4898 35.7515C39.3569 36.3748 39.0481 36.9469 38.6 37.4001L36.4833 39.5167C38.8559 43.6893 42.3107 47.1442 46.4833 49.5167L48.6 47.4001C49.0531 46.952 49.6252 46.6432 50.2485 46.5102C50.8718 46.3773 51.5201 46.4258 52.1166 46.6501C53.6288 47.2143 55.1999 47.6057 56.8 47.8167C57.6096 47.931 58.349 48.3388 58.8775 48.9626C59.4061 49.5864 59.6869 50.3827 59.6666 51.2001Z" stroke="white" stroke-linecap="round" stroke-linejoin="round"/>
</svg>
