<svg width="85" height="86" viewBox="0 0 85 86" fill="none" xmlns="http://www.w3.org/2000/svg">
<path d="M84.5 43C84.5 66.4776 65.6905 85.5 42.5 85.5C19.3095 85.5 0.5 66.4776 0.5 43C0.5 19.5224 19.3095 0.5 42.5 0.5C65.6905 0.5 84.5 19.5224 84.5 43Z" stroke="black"/>
<path d="M59.6666 51.2V56.2C59.6685 56.6641 59.5734 57.1236 59.3875 57.5489C59.2015 57.9742 58.9288 58.3559 58.5868 58.6697C58.2447 58.9835 57.8409 59.2224 57.4012 59.3711C56.9615 59.5198 56.4956 59.5751 56.0333 59.5333C50.9047 58.976 45.9783 57.2235 41.65 54.4166C37.623 51.8577 34.2089 48.4436 31.65 44.4166C28.8333 40.0686 27.0804 35.1183 26.5333 29.9666C26.4917 29.5057 26.5464 29.0412 26.6941 28.6027C26.8418 28.1641 27.0793 27.7611 27.3912 27.4193C27.7032 27.0775 28.083 26.8045 28.5063 26.6175C28.9296 26.4305 29.3872 26.3337 29.85 26.3333H34.85C35.6588 26.3253 36.443 26.6118 37.0562 27.1392C37.6695 27.6666 38.0701 28.399 38.1833 29.2C38.3943 30.8001 38.7857 32.3712 39.35 33.8833C39.5742 34.4798 39.6227 35.1281 39.4898 35.7514C39.3569 36.3747 39.0481 36.9468 38.6 37.4L36.4833 39.5166C38.8559 43.6892 42.3107 47.144 46.4833 49.5166L48.6 47.4C49.0531 46.9519 49.6252 46.643 50.2485 46.5101C50.8718 46.3772 51.5201 46.4257 52.1166 46.65C53.6288 47.2142 55.1999 47.6056 56.8 47.8166C57.6096 47.9308 58.349 48.3386 58.8775 48.9624C59.4061 49.5863 59.6869 50.3826 59.6666 51.2Z" stroke="black" stroke-linecap="round" stroke-linejoin="round"/>
</svg>
