<svg width="45" height="46" viewBox="0 0 45 46" fill="none" xmlns="http://www.w3.org/2000/svg">
<path d="M44.5 22.7647C44.5 35.0667 34.6448 45.0294 22.5 45.0294C10.3552 45.0294 0.5 35.0667 0.5 22.7647C0.5 10.4627 10.3552 0.5 22.5 0.5C34.6448 0.5 44.5 10.4627 44.5 22.7647Z" stroke="black"/>
<path d="M31.5883 27.106V29.753C31.5893 29.9987 31.5389 30.242 31.4405 30.4671C31.342 30.6923 31.1976 30.8944 31.0166 31.0605C30.8355 31.2267 30.6217 31.3531 30.3889 31.4319C30.1561 31.5106 29.9095 31.5398 29.6647 31.5177C26.9496 31.2227 24.3415 30.2949 22.05 28.8089C19.9181 27.4542 18.1106 25.6467 16.7559 23.5148C15.2647 21.2129 14.3367 18.5921 14.0471 15.8648C14.025 15.6208 14.054 15.3749 14.1322 15.1427C14.2104 14.9105 14.3361 14.6971 14.5013 14.5162C14.6665 14.3353 14.8675 14.1907 15.0916 14.0917C15.3157 13.9927 15.558 13.9415 15.803 13.9412H18.45C18.8782 13.937 19.2934 14.0887 19.618 14.3679C19.9427 14.6471 20.1548 15.0349 20.2147 15.4589C20.3265 16.306 20.5337 17.1378 20.8324 17.9383C20.9511 18.2541 20.9768 18.5973 20.9064 18.9273C20.836 19.2573 20.6725 19.5602 20.4353 19.8001L19.3147 20.9207C20.5708 23.1297 22.3998 24.9587 24.6088 26.2148L25.7294 25.0942C25.9693 24.857 26.2722 24.6935 26.6022 24.6231C26.9322 24.5527 27.2754 24.5784 27.5912 24.6971C28.3917 24.9959 29.2235 25.2031 30.0706 25.3148C30.4992 25.3752 30.8907 25.5911 31.1705 25.9214C31.4503 26.2516 31.599 26.6732 31.5883 27.106Z" stroke="black" stroke-linecap="round" stroke-linejoin="round"/>
</svg>
