<svg width="85" height="86" viewBox="0 0 85 86" fill="none" xmlns="http://www.w3.org/2000/svg">
<ellipse cx="42.5" cy="43" rx="42.5" ry="43" fill="black"/>
<path d="M62.0631 25C63.3882 25 64.3878 26.1599 63.8531 28.3174L57.3672 58.8234C56.9139 60.9924 55.6004 61.5144 53.7871 60.5052L38.3163 49.1032C38.2563 49.0602 38.2074 49.0036 38.1737 48.9381C38.14 48.8725 38.1224 48.7999 38.1224 48.7262C38.1224 48.6525 38.14 48.5799 38.1737 48.5144C38.2074 48.4488 38.2563 48.3922 38.3163 48.3493L56.1816 32.2495C56.9952 31.5304 56.0072 31.1824 54.9379 31.8319L32.5162 45.9482C32.4482 45.9925 32.3709 46.0207 32.2904 46.0307C32.2098 46.0408 32.128 46.0324 32.0512 46.0062L22.5316 43.002C20.4161 42.3872 20.4161 40.9373 23.0081 39.905L61.0983 25.2436C61.4004 25.099 61.7284 25.0161 62.0631 25Z" stroke="white" stroke-linecap="round" stroke-linejoin="round"/>
</svg>
