<svg width="45" height="46" viewBox="0 0 45 46" fill="none" xmlns="http://www.w3.org/2000/svg">
<path d="M44.5 22.7647C44.5 35.0667 34.6448 45.0294 22.5 45.0294C10.3552 45.0294 0.5 35.0667 0.5 22.7647C0.5 10.4627 10.3552 0.5 22.5 0.5C34.6448 0.5 44.5 10.4627 44.5 22.7647Z" stroke="black"/>
<path d="M32.8569 13.2354C33.5584 13.2354 34.0876 13.8494 33.8046 14.9916L30.3709 31.1418C30.1309 32.2902 29.4355 32.5665 28.4755 32.0322L20.2851 25.9959C20.2533 25.9731 20.2274 25.9432 20.2096 25.9085C20.1917 25.8738 20.1824 25.8353 20.1824 25.7963C20.1824 25.7573 20.1917 25.7188 20.2096 25.6841C20.2274 25.6494 20.2533 25.6195 20.2851 25.5967L29.7432 17.0733C30.1739 16.6926 29.6509 16.5084 29.0848 16.8523L17.2144 24.3256C17.1784 24.349 17.1376 24.364 17.0949 24.3693C17.0523 24.3746 17.009 24.3701 16.9683 24.3563L11.9285 22.7658C10.8085 22.4404 10.8085 21.6728 12.1808 21.1262L32.3462 13.3643C32.5061 13.2877 32.6798 13.2439 32.8569 13.2354Z" stroke="black" stroke-linecap="round" stroke-linejoin="round"/>
</svg>
