<svg width="45" height="46" viewBox="0 0 45 46" fill="none" xmlns="http://www.w3.org/2000/svg">
<path d="M44.5 22.7647C44.5 35.0667 34.6448 45.0294 22.5 45.0294C10.3552 45.0294 0.5 35.0667 0.5 22.7647C0.5 10.4627 10.3552 0.5 22.5 0.5C34.6448 0.5 44.5 10.4627 44.5 22.7647Z" stroke="black"/>
<path d="M23.2989 12.1765C21.4588 12.1784 19.6509 12.647 18.0529 13.5362C16.4549 14.4254 15.1219 15.7046 14.185 17.248C13.248 18.7914 12.7393 20.5458 12.7089 22.3389C12.6784 24.1319 13.1274 25.9018 14.0115 27.4745L12.7059 32.8236L18.1945 31.5511C19.6102 32.308 21.1846 32.7394 22.7975 32.8124C24.4105 32.8855 26.0192 32.5982 27.5008 31.9726C28.9823 31.347 30.2975 30.3996 31.3459 29.2028C32.3943 28.006 33.148 26.5915 33.5495 25.0674C33.9511 23.5432 33.9898 21.9498 33.6627 20.4088C33.3357 18.8679 32.6514 17.4202 31.6624 16.1764C30.6733 14.9325 29.4056 13.9255 27.956 13.2323C26.5065 12.5391 24.9136 12.1779 23.2989 12.1765ZM18.0024 16.8677H20.8896C21.0203 16.8677 21.1456 16.9183 21.238 17.0084C21.3304 17.0984 21.3823 17.2205 21.3823 17.3479C21.3661 17.9882 21.4765 18.6256 21.7075 19.2253C21.8069 19.4261 21.8288 19.655 21.7691 19.8702C21.7093 20.0854 21.572 20.2724 21.3823 20.3969L20.3723 21.3573C20.8201 22.2096 21.4057 22.9861 22.1066 23.6572C22.7896 24.3514 23.5832 24.9335 24.4567 25.381L25.4421 24.3967C25.9348 23.9165 26.1615 23.9165 26.6443 24.0798C27.2597 24.3049 27.9137 24.4124 28.5708 24.3967C28.6995 24.4025 28.8214 24.455 28.9125 24.5438C29.0036 24.6326 29.0575 24.7514 29.0635 24.8769V27.6906C29.0575 27.8161 29.0036 27.9348 28.9125 28.0237C28.8214 28.1125 28.6995 28.1649 28.5708 28.1708C25.6725 28.0477 22.9253 26.8768 20.865 24.8865C18.8195 22.8807 17.6174 20.2021 17.4949 17.3767C17.4961 17.2445 17.5495 17.1179 17.644 17.0231C17.7385 16.9283 17.8669 16.8727 18.0024 16.8677Z" stroke="black" stroke-linecap="round" stroke-linejoin="round"/>
</svg>
