<svg width="85" height="86" viewBox="0 0 85 86" fill="none" xmlns="http://www.w3.org/2000/svg">
<path d="M84.5 43C84.5 66.4776 65.6905 85.5 42.5 85.5C19.3095 85.5 0.5 66.4776 0.5 43C0.5 19.5224 19.3095 0.5 42.5 0.5C65.6905 0.5 84.5 19.5224 84.5 43Z" stroke="black"/>
<path d="M44.009 23C40.5333 23.0036 37.1184 23.8888 34.1 25.5683C31.0816 27.2479 28.5637 29.6642 26.7938 32.5794C25.024 35.4947 24.0631 38.8087 24.0056 42.1956C23.9482 45.5825 24.7962 48.9256 26.4662 51.8963L24 62L34.3675 59.5965C37.0415 61.0261 40.0154 61.841 43.0621 61.979C46.1087 62.117 49.1474 61.5744 51.9459 60.3927C54.7444 59.211 57.2287 57.4214 59.2089 55.1608C61.1892 52.9002 62.6129 50.2283 63.3714 47.3494C64.1299 44.4704 64.203 41.4606 63.5852 38.5499C62.9674 35.6392 61.675 32.9047 59.8067 30.5553C57.9385 28.2058 55.5439 26.3037 52.8059 24.9943C50.0679 23.6848 47.059 23.0027 44.009 23ZM34.0045 31.8612H39.4582C39.705 31.8612 39.9417 31.9567 40.1162 32.1268C40.2908 32.2969 40.3888 32.5276 40.3888 32.7681C40.3583 33.9777 40.5668 35.1817 41.003 36.3144C41.1909 36.6936 41.2322 37.1261 41.1194 37.5326C41.0066 37.939 40.7472 38.2922 40.3888 38.5274L38.481 40.3414C39.3269 41.9513 40.433 43.4182 41.7569 44.6858C43.0471 45.997 44.5461 47.0965 46.1961 47.9419L48.0574 46.0826C48.988 45.1756 49.4161 45.1756 50.3282 45.484C51.4905 45.9091 52.7259 46.1123 53.967 46.0826C54.2102 46.0936 54.4404 46.1927 54.6125 46.3605C54.7847 46.5282 54.8864 46.7525 54.8977 46.9895V52.3044C54.8864 52.5414 54.7847 52.7657 54.6125 52.9335C54.4404 53.1013 54.2102 53.2004 53.967 53.2114C48.4926 52.979 43.3033 50.7672 39.4116 47.0077C35.5479 43.219 33.2773 38.1594 33.046 32.8226C33.0482 32.5729 33.149 32.3337 33.3275 32.1546C33.5061 31.9756 33.7485 31.8705 34.0045 31.8612Z" stroke="black" stroke-linecap="round" stroke-linejoin="round"/>
</svg>
